<svg width="425" height="206" viewBox="0 0 425 206" fill="none" xmlns="http://www.w3.org/2000/svg">
<path fill-rule="evenodd" clip-rule="evenodd" d="M425 50.7121C425 70.1162 413.615 86.9386 396.977 95.2265C396.152 122.14 373.421 143.712 345.5 143.712C340.38 143.712 335.435 142.987 330.767 141.636C325.634 163.997 305.078 180.712 280.5 180.712C276.693 180.712 272.983 180.311 269.412 179.55C260.135 188.314 247.467 193.712 233.5 193.712C220.348 193.712 208.348 188.926 199.246 181.049C192.639 184.041 185.271 185.712 177.5 185.712C168.955 185.712 160.897 183.692 153.803 180.116C144.584 188.546 132.163 193.712 118.5 193.712C108.81 193.712 99.7451 191.114 92.0041 186.596C82.5748 198.236 67.9366 205.712 51.5 205.712C23.0573 205.712 0 183.326 0 155.712C0 128.098 23.0573 105.712 51.5 105.712C61.19 105.712 70.2549 108.31 77.9959 112.828C87.4252 101.188 102.063 93.7121 118.5 93.7121C127.045 93.7121 135.103 95.7325 142.197 99.3081C151.416 90.8781 163.837 85.7121 177.5 85.7121C190.652 85.7121 202.652 90.4985 211.754 98.375C218.361 95.383 225.729 93.7121 233.5 93.7121C237.307 93.7121 241.017 94.1131 244.588 94.8739C253.865 86.1099 266.533 80.7121 280.5 80.7121C285.62 80.7121 290.565 81.4375 295.233 82.7881C298.6 68.1212 308.602 55.883 322.023 49.1977C322.848 22.2841 345.579 0.712135 373.5 0.712135C401.943 0.712135 425 23.0979 425 50.7121Z" fill="#F4F9FA"/>
</svg>
